<svg xmlns="http://www.w3.org/2000/svg" viewBox="0 0 134 26"><defs><style>.cls-1{fill:#ff8955;}.cls-2{fill:#953bff;}.cls-3{fill:#ff5f7a;}.cls-4{fill:#343f52;}</style></defs><g id="_134_x_26" data-name="134 x 26"><path class="cls-1" d="M21,3.9V4a3.71,3.71,0,0,1-3.7,3.7h-.53c-5,0-8.54,2.12-9,6.31V3.87a4,4,0,0,0-.33-1.58A18.18,18.18,0,0,1,15.47,0h1.61A3.87,3.87,0,0,1,21,3.9Z"/><path class="cls-2" d="M7.41,2.29A14.76,14.76,0,0,0,0,15.5V3.87A3.87,3.87,0,0,1,6.61,1.13,4.22,4.22,0,0,1,7.41,2.29Z"/><path class="cls-3" d="M7.74,3.87V22.13a3.87,3.87,0,0,1-7.74,0V15.5A14.76,14.76,0,0,1,7.41,2.29,4,4,0,0,1,7.74,3.87Z"/><path class="cls-4" d="M57.27,14.61a1.23,1.23,0,0,1-2.45,0A1.23,1.23,0,0,1,57.27,14.61Z"/><path class="cls-4" d="M28.46,4.16l.15,1A2.49,2.49,0,0,1,31,3.93a3.21,3.21,0,0,1,2.17.81l-.94,1.8A2.08,2.08,0,0,0,30.71,6a1.94,1.94,0,0,0-2.1,2.13v4.43H26.53V4.16Z"/><path class="cls-4" d="M40.6,4.16h2v8.4h-2l-.1-1.23a3.21,3.21,0,0,1-2.73,1.49c-2.49,0-4.33-1.52-4.33-4.47A4.09,4.09,0,0,1,37.85,4a3.08,3.08,0,0,1,2.68,1.37ZM35.55,8.35A2.41,2.41,0,0,0,38,10.91c3.27,0,3.27-5.1,0-5.1A2.4,2.4,0,0,0,35.55,8.35Z"/><path class="cls-4" d="M44.35,16.07V4.16h1.94l.14,1.16A3.34,3.34,0,0,1,49.16,4a4.2,4.2,0,0,1,4.31,4.4,4.11,4.11,0,0,1-4.25,4.4,3.38,3.38,0,0,1-2.79-1.2v4.5Zm7-7.7a2.39,2.39,0,1,0-4.77,0,2.39,2.39,0,0,0,4.77,0Z"/><path class="cls-4" d="M55,4.12v8.44h2.08V4.12Z"/><path class="cls-4" d="M67.69.64V12.56h-2l-.13-1.16a3.06,3.06,0,0,1-2.71,1.35,4.12,4.12,0,0,1-4.33-4.4A4,4,0,0,1,62.84,4,3.5,3.5,0,0,1,65.61,5.3V.64Zm-7,7.71A2.35,2.35,0,0,0,63,10.82a2.38,2.38,0,0,0,2.44-2.47A2.39,2.39,0,0,0,63,5.9,2.31,2.31,0,0,0,60.65,8.35Z"/><path class="cls-4" d="M28.61,13.16v4.65a3.49,3.49,0,0,1,2.77-1.34,4,4,0,0,1,4.27,4.39,4.12,4.12,0,0,1-4.33,4.4,3.07,3.07,0,0,1-2.71-1.34l-.13,1.16H26.53V13.16Zm.14,7.7a2.39,2.39,0,0,0,2.44,2.48,2.36,2.36,0,0,0,2.38-2.48,2.31,2.31,0,0,0-2.38-2.45A2.4,2.4,0,0,0,28.75,20.86Z"/><path class="cls-4" d="M39.11,16.67l.16,1a2.48,2.48,0,0,1,2.37-1.19,3.17,3.17,0,0,1,2.16.8l-.93,1.81a2.08,2.08,0,0,0-1.5-.55,1.94,1.94,0,0,0-2.1,2.13v4.44H37.19V16.67Z"/><path class="cls-4" d="M51.25,16.67h2v8.41h-2l-.11-1.23a3.18,3.18,0,0,1-2.72,1.48c-2.49,0-4.33-1.52-4.33-4.47a4.08,4.08,0,0,1,4.38-4.39,3.06,3.06,0,0,1,2.67,1.36Zm-5,4.19a2.4,2.4,0,0,0,2.49,2.56c3.27,0,3.27-5.1,0-5.1A2.39,2.39,0,0,0,46.21,20.86Z"/><path class="cls-4" d="M55,16.64v8.44h2.08V16.64Z"/><path class="cls-4" d="M65.15,25.08v-4.4a2,2,0,0,0-2-2.25A2.21,2.21,0,0,0,61,20.78v4.3H58.91V16.65h1.85l.14,1.15a3.79,3.79,0,0,1,2.76-1.27c2,0,3.57,1.49,3.57,4.13v4.42Z"/><path class="cls-4" d="M74.51,18.9a2.85,2.85,0,0,0-2.08-.75c-1,0-1.54.31-1.54.84s.5.85,1.57.92c1.59.1,3.6.46,3.6,2.69,0,1.49-1.21,2.77-3.62,2.77a4.9,4.9,0,0,1-3.88-1.51l1-1.48a4.61,4.61,0,0,0,2.9,1.18c.78,0,1.51-.39,1.51-1s-.47-.82-1.67-.88c-1.58-.12-3.47-.7-3.47-2.61s2-2.63,3.54-2.63a4.52,4.52,0,0,1,3.27,1.11Z"/></g></svg>