<svg xmlns="http://www.w3.org/2000/svg" viewBox="0 0 268 52"><defs><style>.cls-1{fill:#fff;}</style></defs><g id="_268_x_52_light" data-name="268 x 52 light"><path class="cls-1" d="M41.9,7.8V8a7.42,7.42,0,0,1-7.4,7.4H33.44c-9.92,0-17.07,4.25-18,12.61V7.74a7.7,7.7,0,0,0-.67-3.15A36.22,36.22,0,0,1,30.94.06h3.22A7.73,7.73,0,0,1,41.9,7.8Z"/><path class="cls-1" d="M14.81,4.59C5.49,9.93,0,19.49,0,31V7.74A7.74,7.74,0,0,1,13.22,2.27,7.61,7.61,0,0,1,14.81,4.59Z"/><path class="cls-1" d="M15.48,7.74V44.26A7.74,7.74,0,0,1,0,44.26V31C0,19.49,5.49,9.93,14.81,4.59A7.7,7.7,0,0,1,15.48,7.74Z"/><path class="cls-1" d="M114.54,29.23c0,3.24-4.91,3.24-4.91,0S114.54,26,114.54,29.23Z"/><path class="cls-1" d="M56.92,8.31l.31,1.95A5,5,0,0,1,62,7.87a6.38,6.38,0,0,1,4.33,1.6l-1.88,3.62a4.13,4.13,0,0,0-3-1.1c-2.18,0-4.19,1.16-4.19,4.27v8.86H53.07V8.31Z"/><path class="cls-1" d="M81.2,8.31h4V25.12H81.26l-.2-2.45c-1,2-3.58,2.93-5.46,3-5,0-8.66-3-8.66-8.93s3.86-8.83,8.77-8.8a6.16,6.16,0,0,1,5.35,2.73ZM71.1,16.7a4.82,4.82,0,0,0,5,5.11c6.55,0,6.55-10.19,0-10.19A4.79,4.79,0,0,0,71.1,16.7Z"/><path class="cls-1" d="M88.7,32.15V8.31h3.88l.28,2.32a6.67,6.67,0,0,1,5.45-2.69,8.41,8.41,0,0,1,8.63,8.79c0,4.91-3.1,8.8-8.49,8.8-1.78,0-4.4-.54-5.59-2.39v9Zm14.08-15.42a4.78,4.78,0,0,0-9.55,0,4.78,4.78,0,1,0,9.55,0Z"/><path class="cls-1" d="M110,8.24V25.12h4.16V8.24Z"/><path class="cls-1" d="M135.37,1.29V25.12h-3.88l-.28-2.32a6.11,6.11,0,0,1-5.42,2.7c-4.94,0-8.66-3.28-8.66-8.8,0-5.8,3.65-8.8,8.56-8.8,1.77,0,4.53,1,5.52,2.7V1.29ZM121.29,16.7a4.83,4.83,0,1,0,9.65,0,4.8,4.8,0,0,0-4.88-4.91A4.64,4.64,0,0,0,121.29,16.7Z"/><path class="cls-1" d="M57.23,26.32v9.31c1-1.74,3.75-2.7,5.52-2.7,4.91,0,8.56,3,8.56,8.8,0,5.52-3.72,8.8-8.66,8.8a6.11,6.11,0,0,1-5.42-2.7L57,50.15H53.07V26.32Zm.27,15.41a4.83,4.83,0,1,0,9.65,0,4.63,4.63,0,0,0-4.77-4.91A4.8,4.8,0,0,0,57.5,41.73Z"/><path class="cls-1" d="M78.23,33.34l.31,1.94a5,5,0,0,1,4.74-2.38,6.38,6.38,0,0,1,4.33,1.6l-1.88,3.61a4.18,4.18,0,0,0-3-1.09c-2.18,0-4.19,1.16-4.19,4.27v8.86H74.38V33.34Z"/><path class="cls-1" d="M102.51,33.34h4V50.15h-3.92l-.2-2.45c-1,2-3.58,2.93-5.46,3-5,0-8.66-3-8.66-8.93s3.86-8.83,8.77-8.8a6.18,6.18,0,0,1,5.35,2.73Zm-10.1,8.39a4.82,4.82,0,0,0,5,5.11c6.55,0,6.55-10.19,0-10.19A4.79,4.79,0,0,0,92.41,41.73Z"/><path class="cls-1" d="M110,33.27V50.15h4.16V33.27Z"/><path class="cls-1" d="M130.29,50.15v-8.8c0-2.55-1.4-4.5-4-4.5a4.43,4.43,0,0,0-4.3,4.71v8.59h-4.13V33.31h3.72l.27,2.28a7.59,7.59,0,0,1,5.53-2.52c4,0,7.12,3,7.12,8.25v8.83Z"/><path class="cls-1" d="M149,37.81a5.65,5.65,0,0,0-4.16-1.5c-2,0-3.07.61-3.07,1.67s1,1.7,3.14,1.84c3.17.2,7.19.92,7.19,5.39,0,3-2.42,5.52-7.22,5.52a9.84,9.84,0,0,1-7.78-3l2-3A9.25,9.25,0,0,0,145,47.12c1.57,0,3-.79,3-2s-1-1.63-3.34-1.77c-3.17-.24-7-1.4-7-5.22s4-5.25,7.09-5.25a9,9,0,0,1,6.55,2.22Z"/></g></svg>