<svg xmlns="http://www.w3.org/2000/svg" viewBox="0 0 83.97 26" xmlns:v="https://vecta.io/nano"><path d="M23.57 4.68v.11c0 2-1.87 3.57-4.16 3.57h-.6c-5.58 0-9.61 2.05-10.1 6.09v-9.8a3.29 3.29 0 0 0-.38-1.52A23 23 0 0 1 17.4.94h1.82c2.4 0 4.35 1.67 4.35 3.74z" fill="#f68959"/><path d="M8.33 3.13C3.08 5.7-.02 10.32-.02 15.87V4.65c0-2.06 2-3.74 4.37-3.74A4.72 4.72 0 0 1 7.43 2a3.71 3.71 0 0 1 .9 1.13z" fill="#7859a5"/><path d="M8.71 4.65v17.62c0 2.06-1.95 3.73-4.36 3.73s-4.37-1.67-4.37-3.73v-6.4c0-5.55 3.1-10.17 8.35-12.74a3.29 3.29 0 0 1 .38 1.52z" fill="#f1607b"/><path d="M62.82 13.48c0 1.56-2.76 1.56-2.76 0s2.76-1.56 2.76 0zM30.41 3.39l.17.94a3 3 0 0 1 2.67-1.16 3.92 3.92 0 0 1 2.43.83l-1.05 1.69a2.61 2.61 0 0 0-1.65-.53c-1.23 0-2.36.56-2.36 2.06v4.28h-2.38V3.39zm13.65 0h2.25v8.11H44.1l-.12-1.19a3.75 3.75 0 0 1-3.07 1.43c-2.8 0-4.87-1.46-4.87-4.31s2.17-4.26 4.94-4.24a3.67 3.67 0 0 1 3 1.32zm-5.67 4a2.53 2.53 0 0 0 2.8 2.47 2.48 2.48 0 1 0 0-4.92 2.52 2.52 0 0 0-2.8 2.49zm9.89 7.5V3.39h2.19l.15 1.12a4 4 0 0 1 3.07-1.3c2.92 0 4.86 1.86 4.86 4.24s-1.75 4.24-4.78 4.24a4.14 4.14 0 0 1-3.15-1.15v4.35zm7.93-7.44a2.72 2.72 0 0 0-5.37 0 2.72 2.72 0 0 0 5.37 0zm4.06-4.09v8.14h2.34V3.36zM74.54 0v11.5h-2.18l-.16-1.12a3.64 3.64 0 0 1-3 1.3c-2.78 0-4.87-1.58-4.87-4.25s2-4.24 4.82-4.24a4.16 4.16 0 0 1 3.1 1.3V0zm-7.92 7.43a2.48 2.48 0 0 0 2.69 2.39 2.51 2.51 0 0 0 2.74-2.39 2.53 2.53 0 0 0-2.74-2.36 2.44 2.44 0 0 0-2.69 2.36zm-36.04 4.64v4.5a4.18 4.18 0 0 1 3.11-1.3c2.76 0 4.81 1.44 4.81 4.24s-2.09 4.24-4.87 4.24a3.66 3.66 0 0 1-3-1.3l-.15 1.12h-2.24v-11.5zm.15 7.44a2.51 2.51 0 0 0 2.75 2.38 2.48 2.48 0 0 0 2.68-2.38 2.44 2.44 0 0 0-2.68-2.37 2.53 2.53 0 0 0-2.75 2.37zm11.67-4.05l.17.94a3 3 0 0 1 2.66-1.15 4 4 0 0 1 2.44.77l-1 1.75a2.57 2.57 0 0 0-1.69-.53c-1.23 0-2.36.56-2.36 2.06v4.27h-2.39v-8.11zm13.65 0h2.25v8.11h-2.21l-.11-1.18a3.81 3.81 0 0 1-3.07 1.43c-2.8 0-4.88-1.46-4.88-4.31s2.17-4.26 4.93-4.24a3.7 3.7 0 0 1 3 1.31zm-5.68 4.05A2.54 2.54 0 0 0 53.18 22a2.48 2.48 0 1 0 0-4.92 2.52 2.52 0 0 0-2.81 2.43zm9.9-4.08v8.14h2.34v-8.14zm11.42 8.14v-4.24a2.08 2.08 0 0 0-2.29-2.17 2.28 2.28 0 0 0-2.42 2.27v4.14h-2.31v-8.12h2.09l.15 1.1a4.59 4.59 0 0 1 3.07-1.22 3.78 3.78 0 0 1 4 4v4.26zm10.53-5.95a3.54 3.54 0 0 0-2.34-.73c-1.12 0-1.73.3-1.73.81s.56.82 1.77.89c1.78.1 4 .44 4 2.6 0 1.43-1.36 2.66-4.06 2.66a6.06 6.06 0 0 1-4.38-1.45l1.19-1.4a5.75 5.75 0 0 0 3.31 1.11c.89 0 1.71-.38 1.71-1s-.54-.79-1.88-.86c-1.78-.11-3.91-.67-3.91-2.51s2.26-2.54 4-2.54a5.63 5.63 0 0 1 3.68 1.07z" fill="#354053"/></svg>