<svg id="Layer_1_copy" data-name="Layer 1 copy" xmlns="http://www.w3.org/2000/svg" viewBox="0 0 268 52"><defs><style>.cls-1{fill:#ff8955;}.cls-2{fill:#953bff;}.cls-3{fill:#ff5f7a;}.cls-4{fill:#fff;}</style></defs><path class="cls-1" d="M41.9,7.69v.24a7.42,7.42,0,0,1-7.4,7.4H33.44c-9.92,0-17.07,4.25-18,12.62V7.63a7.74,7.74,0,0,0-.67-3.15A36.35,36.35,0,0,1,30.94,0h3.22A7.74,7.74,0,0,1,41.9,7.69Z"/><path class="cls-2" d="M14.81,4.48C5.49,9.82,0,19.39,0,30.89V7.63A7.74,7.74,0,0,1,14.81,4.48Z"/><path class="cls-3" d="M15.48,7.63V44.15A7.74,7.74,0,0,1,0,44.15V30.89C0,19.39,5.49,9.82,14.81,4.48A7.74,7.74,0,0,1,15.48,7.63Z"/><path class="cls-4" d="M114.54,29.12c0,3.24-4.91,3.24-4.91,0S114.54,25.88,114.54,29.12Z"/><path class="cls-4" d="M56.92,8.21l.31,1.94A5,5,0,0,1,62,7.76,6.33,6.33,0,0,1,66.3,9.37L64.42,13a4.12,4.12,0,0,0-3-1.09,3.88,3.88,0,0,0-4.19,4.26V25H53.07V8.21Z"/><path class="cls-4" d="M81.2,8.21h4V25H81.26l-.2-2.46c-1,2-3.58,2.93-5.46,3-5,0-8.66-3-8.66-8.94S70.8,7.76,75.71,7.8a6.16,6.16,0,0,1,5.35,2.72ZM71.1,16.59a4.82,4.82,0,0,0,5,5.12c6.55,0,6.55-10.2,0-10.2A4.79,4.79,0,0,0,71.1,16.59Z"/><path class="cls-4" d="M88.7,32V8.21h3.88l.28,2.31a6.67,6.67,0,0,1,5.45-2.69c5.18,0,8.63,3.85,8.63,8.8s-3.1,8.79-8.49,8.79c-1.78,0-4.4-.54-5.59-2.38v9Zm14.08-15.41a4.78,4.78,0,1,0-9.55,0,4.78,4.78,0,0,0,9.55,0Z"/><path class="cls-4" d="M110,8.14V25h4.16V8.14Z"/><path class="cls-4" d="M135.37,1.18V25h-3.88l-.28-2.32a6.1,6.1,0,0,1-5.42,2.69c-4.94,0-8.66-3.27-8.66-8.8,0-5.79,3.65-8.79,8.56-8.79,1.77,0,4.53,1,5.52,2.69V1.18ZM121.29,16.59a4.83,4.83,0,1,0,9.65,0,4.8,4.8,0,0,0-4.88-4.91A4.64,4.64,0,0,0,121.29,16.59Z"/><path class="cls-4" d="M57.23,26.21v9.31c1-1.74,3.75-2.69,5.52-2.69,4.91,0,8.56,3,8.56,8.79,0,5.53-3.72,8.8-8.66,8.8a6.1,6.1,0,0,1-5.42-2.69L57,50H53.07V26.21Zm.27,15.41a4.83,4.83,0,1,0,9.65,0,4.64,4.64,0,0,0-4.77-4.91A4.8,4.8,0,0,0,57.5,41.62Z"/><path class="cls-4" d="M78.23,33.24l.31,1.94a5,5,0,0,1,4.74-2.39,6.38,6.38,0,0,1,4.33,1.6L85.73,38a4.14,4.14,0,0,0-3-1.09,3.88,3.88,0,0,0-4.19,4.26V50H74.38V33.24Z"/><path class="cls-4" d="M102.51,33.24h4V50h-3.92l-.2-2.45c-1,2-3.58,2.93-5.46,3-5,0-8.66-3-8.66-8.94s3.86-8.83,8.77-8.79a6.17,6.17,0,0,1,5.35,2.72Zm-10.1,8.38a4.82,4.82,0,0,0,5,5.12c6.55,0,6.55-10.2,0-10.2A4.79,4.79,0,0,0,92.41,41.62Z"/><path class="cls-4" d="M110,33.17V50h4.16V33.17Z"/><path class="cls-4" d="M130.29,50V41.25c0-2.56-1.4-4.5-4-4.5a4.42,4.42,0,0,0-4.3,4.7V50h-4.13V33.2h3.72l.27,2.29A7.57,7.57,0,0,1,127.33,33c4,0,7.12,3,7.12,8.25V50Z"/><path class="cls-4" d="M149,37.7a5.69,5.69,0,0,0-4.16-1.5c-2,0-3.07.62-3.07,1.67s1,1.71,3.14,1.84c3.17.21,7.19.92,7.19,5.39,0,3-2.42,5.52-7.22,5.52a9.84,9.84,0,0,1-7.78-3l2-3A9.18,9.18,0,0,0,145,47c1.57,0,3-.78,3-2s-1-1.64-3.34-1.77c-3.17-.24-7-1.4-7-5.22s4-5.25,7.09-5.25A9,9,0,0,1,151.33,35Z"/></svg>