<svg xmlns="http://www.w3.org/2000/svg" viewBox="0 0 134 26"><defs><style>.cls-1{fill:#ff8955;}.cls-2{fill:#953bff;}.cls-3{fill:#ff5f7a;}</style></defs><g id="_268_x_52" data-name="268 x 52"><path d="M7.06,24.92V21.58h.37v1.29a1,1,0,0,1,.82-.42,1.13,1.13,0,0,1,1.08,1.27A1.11,1.11,0,0,1,8.25,25a1,1,0,0,1-.82-.42v.36Zm1.1-.27c.49,0,.78-.4.78-.93s-.29-.94-.78-.94a.91.91,0,0,0-.73.39v1.1A.9.9,0,0,0,8.16,24.65Z"/><path d="M10.86,25.53a.65.65,0,0,0,.2,0,.34.34,0,0,0,.36-.26l.16-.36-1-2.44H11l.8,2,.81-2H13l-1.22,2.9a.71.71,0,0,1-.71.49,1.18,1.18,0,0,1-.27,0Z"/><path d="M17.35,22.9h1.48V21.42h.51v3.5h-.51V23.4H17.35v1.52h-.51v-3.5h.51Z"/><path d="M22.59,23.89H21.33c-.13.32-.31.74-.42,1h-.54l1.4-3.55h.37l1.41,3.55H23Zm-1.07-.47h.88L22,22.18Z"/><path d="M26.47,22.32a.67.67,0,0,0-.72-.44.79.79,0,0,0-.64.27.44.44,0,0,0-.08.32c0,.36.42.41.8.44s1.07.19,1.21.75a1.79,1.79,0,0,1,0,.23A1.32,1.32,0,0,1,24.5,24v-.1H25V24c0,.32.43.49.75.49s.79-.21.79-.57a.57.57,0,0,0,0-.12c-.06-.26-.42-.31-.78-.34-.54-.06-1.18-.18-1.24-.91h0a1,1,0,0,1,.19-.67,1.35,1.35,0,0,1,1.06-.47,1.11,1.11,0,0,1,1.2.93Z"/><path d="M28.82,22.9h1.49V21.42h.51v3.5h-.51V23.4H28.82v1.52h-.5v-3.5h.5Z"/><path d="M32.83,23.15h.59a.61.61,0,1,0,0-1.22h-.78v3h-.5v-3.5h1.28a1.08,1.08,0,0,1,1.14,1.11,1.06,1.06,0,0,1-.91,1.08l1.11,1.31H34.1l-1.27-1.53Z"/><path d="M36.2,21.9a1.77,1.77,0,0,1,2.53,0,1.81,1.81,0,0,1,0,2.54,1.77,1.77,0,0,1-2.53,0,1.85,1.85,0,0,1-.52-1.27A1.87,1.87,0,0,1,36.2,21.9Zm2.17.37a1.27,1.27,0,0,0-.91-.39,1.24,1.24,0,0,0-.89.39,1.26,1.26,0,0,0-.38.9,1.3,1.3,0,0,0,1.27,1.29,1.3,1.3,0,0,0,.91-.38,1.28,1.28,0,0,0,.37-.91A1.24,1.24,0,0,0,38.37,22.27Z"/><path d="M41,21.9a1.77,1.77,0,0,1,2.53,0,1.81,1.81,0,0,1,0,2.54,1.77,1.77,0,0,1-2.53,0,1.85,1.85,0,0,1-.52-1.27A1.87,1.87,0,0,1,41,21.9Zm2.17.37a1.27,1.27,0,0,0-.91-.39,1.24,1.24,0,0,0-.89.39,1.26,1.26,0,0,0-.38.9,1.3,1.3,0,0,0,1.27,1.29,1.3,1.3,0,0,0,.91-.38,1.28,1.28,0,0,0,.37-.91A1.24,1.24,0,0,0,43.16,22.27Z"/><path d="M45.92,24.94v-3H44.86v-.51h2.62v.51H46.42v3Z"/></g><g id="_134_x_26" data-name="134 x 26"><path class="cls-1" d="M15.15,2.79v.09a2.68,2.68,0,0,1-2.67,2.67h-.39c-3.58,0-6.17,1.54-6.49,4.56V2.77a2.87,2.87,0,0,0-.24-1.14A13,13,0,0,1,11.19,0h1.16A2.8,2.8,0,0,1,15.15,2.79Z"/><path class="cls-2" d="M5.36,1.63A10.67,10.67,0,0,0,0,11.18V2.77a2.8,2.8,0,0,1,4.78-2A2.87,2.87,0,0,1,5.36,1.63Z"/><path class="cls-3" d="M5.6,2.77V16A2.8,2.8,0,0,1,0,16V11.18A10.67,10.67,0,0,1,5.36,1.63,2.87,2.87,0,0,1,5.6,2.77Z"/><path d="M41.42,10.54a.89.89,0,0,1-1.78,0A.89.89,0,0,1,41.42,10.54Z"/><path d="M20.58,3l.11.7a1.8,1.8,0,0,1,1.72-.86A2.29,2.29,0,0,1,24,3.39L23.3,4.7a1.52,1.52,0,0,0-1.09-.39,1.4,1.4,0,0,0-1.52,1.54v3.2h-1.5V3Z"/><path d="M29.36,3H30.8V9.05H29.39l-.08-.88a2.3,2.3,0,0,1-2,1.07A2.94,2.94,0,0,1,24.21,6a3,3,0,0,1,3.17-3.18,2.22,2.22,0,0,1,1.93,1ZM25.71,6a1.74,1.74,0,0,0,1.8,1.85,1.85,1.85,0,0,0,0-3.69A1.73,1.73,0,0,0,25.71,6Z"/><path d="M32.07,11.59V3h1.41l.1.83a2.43,2.43,0,0,1,2-1A3,3,0,0,1,38.67,6,3,3,0,0,1,35.6,9.2a2.46,2.46,0,0,1-2-.86v3.25ZM37.16,6a1.73,1.73,0,1,0-3.45,0,1.73,1.73,0,1,0,3.45,0Z"/><path d="M39.78,3v6.1h1.5V3Z"/><path d="M49,.44V9.05H47.54l-.09-.83a2.23,2.23,0,0,1-2,1A3,3,0,0,1,42.35,6a2.91,2.91,0,0,1,3.1-3.18,2.52,2.52,0,0,1,2,1V.44ZM43.86,6A1.71,1.71,0,0,0,45.58,7.8,1.73,1.73,0,0,0,47.35,6a1.74,1.74,0,0,0-1.77-1.78A1.68,1.68,0,0,0,43.86,6Z"/><path d="M20.69,9.49v3.36a2.52,2.52,0,0,1,2-1,2.91,2.91,0,0,1,3.1,3.18,3,3,0,0,1-3.14,3.18,2.24,2.24,0,0,1-2-1l-.09.83H19.19V9.49Zm.1,5.57a1.73,1.73,0,0,0,1.77,1.79,1.71,1.71,0,0,0,1.72-1.79,1.68,1.68,0,0,0-1.72-1.78A1.74,1.74,0,0,0,20.79,15.06Z"/><path d="M28.29,12l.11.7a1.79,1.79,0,0,1,1.71-.86,2.32,2.32,0,0,1,1.57.57L31,13.75a1.49,1.49,0,0,0-1.08-.39A1.4,1.4,0,0,0,28.4,14.9v3.2H26.9V12Z"/><path d="M37.07,12h1.44V18.1H37.09L37,17.22a2.33,2.33,0,0,1-2,1.07,2.94,2.94,0,0,1-3.13-3.23,3,3,0,0,1,3.17-3.18,2.25,2.25,0,0,1,1.94,1Zm-3.65,3a1.74,1.74,0,0,0,1.8,1.85c2.36,0,2.36-3.69,0-3.69A1.73,1.73,0,0,0,33.42,15.06Z"/><path d="M39.78,12v6.1h1.5V12Z"/><path d="M47.11,18.1V14.92a1.44,1.44,0,0,0-1.46-1.62A1.6,1.6,0,0,0,44.09,15v3.1H42.6V12h1.34l.1.83a2.77,2.77,0,0,1,2-.91c1.43,0,2.58,1.07,2.58,3V18.1Z"/><path d="M53.88,13.64a2,2,0,0,0-1.5-.54c-.72,0-1.11.22-1.11.6s.35.62,1.13.67c1.15.07,2.6.33,2.6,2,0,1.07-.87,2-2.61,2a3.57,3.57,0,0,1-2.81-1.08l.74-1.07a3.38,3.38,0,0,0,2.09.85c.57,0,1.1-.29,1.1-.73s-.34-.59-1.21-.64c-1.14-.09-2.51-.51-2.51-1.89s1.45-1.9,2.56-1.9a3.29,3.29,0,0,1,2.37.8Z"/></g></svg>