<?xml version="1.0" encoding="UTF-8"?>
<svg id="Layer_1_copy" data-name="Layer 1 copy" xmlns="http://www.w3.org/2000/svg" viewBox="0 0 134 26">
  <defs>
    <style>
      .cls-1, .cls-2, .cls-3, .cls-4 {
        stroke-width: 0px;
      }

      .cls-2 {
        fill: #953bff;
      }

      .cls-3 {
        fill: #ff8955;
      }

      .cls-5 {
        font-family: OpenSans-Extrabold, 'Open Sans';
        font-size: 2.05px;
        font-weight: 700;
      }

      .cls-4 {
        fill: #ff5f7a;
      }

      .cls-6 {
        fill: none;
        stroke: #000;
        stroke-miterlimit: 10;
        stroke-width: .5px;
      }
    </style>
  </defs>
  <g>
    <path class="cls-3" d="M20.93,3.9v.12c0,2.04-1.67,3.7-3.7,3.7h-.53c-4.96,0-8.54,2.12-8.98,6.31V3.87c0-.56-.12-1.09-.33-1.58C9.65,1,12.37.2,15.45.03h1.61c2.14,0,3.87,1.73,3.87,3.87Z"/>
    <path class="cls-2" d="M7.38,2.29C2.72,4.97-.02,9.75-.02,15.5V3.87C-.02,1.73,1.71,0,3.85,0c1.07,0,2.04.43,2.74,1.13.33.33.6.73.8,1.16Z"/>
    <path class="cls-4" d="M7.72,3.87v18.26c0,2.14-1.73,3.87-3.87,3.87S-.02,24.27-.02,22.13v-6.63C-.02,9.75,2.72,4.97,7.38,2.29c.21.48.33,1.01.33,1.58Z"/>
  </g>
  <g>
    <path class="cls-1" d="M57.25,14.61c0,1.62-2.45,1.62-2.45,0s2.45-1.62,2.45,0Z"/>
    <path class="cls-1" d="M28.44,4.16l.15.97c.65-1.04,1.52-1.19,2.37-1.19s1.7.34,2.17.8l-.94,1.81c-.43-.36-.82-.55-1.5-.55-1.09,0-2.1.58-2.1,2.13v4.43h-2.08V4.16h1.93Z"/>
    <path class="cls-1" d="M40.58,4.16h1.99v8.4h-1.96l-.1-1.23c-.48.99-1.79,1.47-2.73,1.48-2.49.02-4.33-1.52-4.33-4.47s1.93-4.42,4.38-4.4c1.13,0,2.2.53,2.68,1.36l.07-1.16ZM35.53,8.35c0,1.6,1.11,2.56,2.49,2.56,3.27,0,3.27-5.1,0-5.1-1.38,0-2.49.94-2.49,2.54Z"/>
    <path class="cls-1" d="M44.33,16.07V4.16h1.94l.14,1.16c.65-.94,1.77-1.35,2.73-1.35,2.59,0,4.31,1.93,4.31,4.4s-1.55,4.4-4.24,4.4c-.89,0-2.2-.27-2.8-1.19v4.5h-2.08ZM51.37,8.37c0-1.31-.89-2.39-2.39-2.39s-2.39,1.07-2.39,2.39.97,2.39,2.39,2.39,2.39-1.07,2.39-2.39Z"/>
    <path class="cls-1" d="M54.98,4.12v8.44h2.08V4.12h-2.08Z"/>
    <path class="cls-1" d="M67.66.64v11.92h-1.94l-.14-1.16c-.65,1.01-1.69,1.35-2.71,1.35-2.47,0-4.33-1.64-4.33-4.4,0-2.9,1.82-4.4,4.28-4.4.89,0,2.27.48,2.76,1.35V.64h2.08ZM60.62,8.35c0,1.47,1.06,2.47,2.39,2.47s2.44-.95,2.44-2.47-1.13-2.45-2.44-2.45-2.39.94-2.39,2.45Z"/>
    <path class="cls-1" d="M28.59,13.16v4.65c.49-.87,1.88-1.35,2.76-1.35,2.45,0,4.28,1.5,4.28,4.4s-1.86,4.4-4.33,4.4c-1.02,0-2.06-.34-2.71-1.35l-.14,1.16h-1.94v-11.92h2.08ZM28.73,20.86c0,1.52,1.13,2.47,2.44,2.47s2.39-1.01,2.39-2.47-1.06-2.45-2.39-2.45-2.44.99-2.44,2.45Z"/>
    <path class="cls-1" d="M39.09,16.67l.15.97c.65-1.04,1.52-1.19,2.37-1.19s1.7.34,2.17.8l-.94,1.81c-.43-.36-.82-.55-1.5-.55-1.09,0-2.1.58-2.1,2.13v4.43h-2.08v-8.4h1.93Z"/>
    <path class="cls-1" d="M51.23,16.67h1.99v8.4h-1.96l-.1-1.23c-.48.99-1.79,1.47-2.73,1.48-2.49.02-4.33-1.52-4.33-4.47s1.93-4.42,4.38-4.4c1.13,0,2.2.53,2.68,1.36l.07-1.16ZM46.18,20.86c0,1.6,1.11,2.56,2.49,2.56,3.27,0,3.27-5.1,0-5.1-1.38,0-2.49.94-2.49,2.54Z"/>
    <path class="cls-1" d="M54.98,16.64v8.44h2.08v-8.44h-2.08Z"/>
    <path class="cls-1" d="M65.12,25.08v-4.4c0-1.28-.7-2.25-2.03-2.25s-2.15,1.07-2.15,2.35v4.3h-2.06v-8.42h1.86l.14,1.14c.85-.84,1.7-1.26,2.76-1.26,1.98,0,3.56,1.48,3.56,4.13v4.42h-2.08Z"/>
    <path class="cls-1" d="M74.48,18.9c-.6-.56-1.28-.75-2.08-.75-.99,0-1.53.31-1.53.84s.49.85,1.57.92c1.59.1,3.6.46,3.6,2.69,0,1.48-1.21,2.76-3.61,2.76-1.33,0-2.66-.22-3.89-1.5l1.02-1.48c.6.66,1.96,1.16,2.9,1.18.78.02,1.52-.39,1.52-1.01,0-.58-.48-.82-1.67-.89-1.59-.12-3.48-.7-3.48-2.61s2.01-2.63,3.55-2.63c1.31,0,2.3.26,3.27,1.11l-1.16,1.36Z"/>
  </g>
  <g>
    <circle class="cls-6" cx="70.58" cy="2.33" r="1.38"/>
    <text class="cls-5" transform="translate(69.89 3.06)"><tspan x="0" y="0">R</tspan></text>
  </g>
</svg>