<?xml version="1.0" encoding="UTF-8"?>
<svg id="_268x52" data-name="268x52" xmlns="http://www.w3.org/2000/svg" viewBox="0 0 268 52">
  <defs>
    <style>
      .cls-1 {
        fill: none;
        stroke: #000;
        stroke-miterlimit: 10;
      }

      .cls-2, .cls-3, .cls-4, .cls-5 {
        stroke-width: 0px;
      }

      .cls-3 {
        fill: #953bff;
      }

      .cls-4 {
        fill: #ff8955;
      }

      .cls-5 {
        fill: #ff5f7a;
      }

      .cls-6 {
        font-family: OpenSans-Extrabold, 'Open Sans';
        font-size: 4.1px;
        font-weight: 700;
      }
    </style>
  </defs>
  <g>
    <path class="cls-4" d="M42.03,7.95v.24c0,4.07-3.33,7.4-7.4,7.4h-1.06c-9.92,0-17.07,4.25-17.96,12.61V7.89c0-1.12-.24-2.19-.67-3.15C19.47,2.15,24.91.55,31.06.21h3.23c4.28,0,7.74,3.47,7.74,7.74Z"/>
    <path class="cls-3" d="M14.94,4.74C5.62,10.08.13,19.65.13,31.15V7.89C.13,3.62,3.59.15,7.87.15c2.14,0,4.07.87,5.47,2.27.66.67,1.21,1.45,1.6,2.32Z"/>
    <path class="cls-5" d="M15.61,7.89v36.52c0,4.28-3.46,7.74-7.74,7.74S.13,48.69.13,44.41v-13.27C.13,19.65,5.62,10.08,14.94,4.74c.43.96.67,2.03.67,3.15Z"/>
  </g>
  <g>
    <path class="cls-2" d="M114.67,29.38c0,3.24-4.91,3.24-4.91,0s4.91-3.24,4.91,0Z"/>
    <path class="cls-2" d="M57.05,8.47l.31,1.94c1.3-2.08,3.03-2.39,4.74-2.39s3.41.68,4.33,1.6l-1.88,3.61c-.85-.72-1.64-1.09-3-1.09-2.18,0-4.19,1.16-4.19,4.26v8.86h-4.16V8.47h3.85Z"/>
    <path class="cls-2" d="M81.32,8.47h3.99v16.81h-3.92l-.2-2.45c-.95,1.98-3.58,2.93-5.46,2.97-4.98.03-8.66-3.03-8.66-8.93s3.85-8.83,8.76-8.8c2.25,0,4.4,1.06,5.35,2.73l.14-2.32ZM71.23,16.85c0,3.2,2.22,5.11,4.98,5.11,6.55,0,6.55-10.19,0-10.19-2.76,0-4.98,1.88-4.98,5.08Z"/>
    <path class="cls-2" d="M88.82,32.3V8.47h3.89l.27,2.32c1.3-1.88,3.55-2.69,5.46-2.69,5.18,0,8.63,3.85,8.63,8.8s-3.1,8.8-8.49,8.8c-1.77,0-4.4-.55-5.59-2.39v9h-4.16ZM102.91,16.89c0-2.63-1.77-4.77-4.77-4.77s-4.77,2.15-4.77,4.77,1.94,4.77,4.77,4.77,4.77-2.15,4.77-4.77Z"/>
    <path class="cls-2" d="M110.13,8.4v16.88h4.16V8.4h-4.16Z"/>
    <path class="cls-2" d="M135.5,1.44v23.83h-3.89l-.27-2.32c-1.3,2.01-3.38,2.69-5.42,2.69-4.94,0-8.66-3.27-8.66-8.8,0-5.8,3.65-8.8,8.56-8.8,1.77,0,4.53.95,5.52,2.69V1.44h4.16ZM121.42,16.85c0,2.93,2.11,4.94,4.77,4.94s4.88-1.91,4.88-4.94-2.25-4.91-4.88-4.91-4.77,1.88-4.77,4.91Z"/>
    <path class="cls-2" d="M57.36,26.47v9.31c.99-1.74,3.75-2.69,5.52-2.69,4.91,0,8.56,3,8.56,8.8s-3.72,8.8-8.66,8.8c-2.05,0-4.13-.68-5.42-2.69l-.27,2.32h-3.89v-23.83h4.16ZM57.63,41.88c0,3.03,2.25,4.94,4.88,4.94s4.77-2.01,4.77-4.94-2.11-4.91-4.77-4.91-4.88,1.98-4.88,4.91Z"/>
    <path class="cls-2" d="M78.36,33.5l.31,1.94c1.3-2.08,3.03-2.39,4.74-2.39s3.41.68,4.33,1.6l-1.88,3.61c-.85-.72-1.64-1.09-3-1.09-2.18,0-4.19,1.16-4.19,4.26v8.86h-4.16v-16.81h3.85Z"/>
    <path class="cls-2" d="M102.63,33.5h3.99v16.81h-3.92l-.2-2.45c-.95,1.98-3.58,2.93-5.46,2.97-4.98.03-8.66-3.03-8.66-8.93s3.85-8.83,8.76-8.8c2.25,0,4.4,1.06,5.35,2.73l.14-2.32ZM92.54,41.88c0,3.2,2.22,5.11,4.98,5.11,6.55,0,6.55-10.19,0-10.19-2.76,0-4.98,1.88-4.98,5.08Z"/>
    <path class="cls-2" d="M110.13,33.43v16.88h4.16v-16.88h-4.16Z"/>
    <path class="cls-2" d="M130.42,50.3v-8.8c0-2.56-1.4-4.5-4.06-4.5s-4.3,2.15-4.3,4.71v8.59h-4.13v-16.84h3.72l.27,2.28c1.7-1.67,3.41-2.52,5.52-2.52,3.96,0,7.13,2.97,7.13,8.25v8.83h-4.16Z"/>
    <path class="cls-2" d="M149.14,37.96c-1.19-1.13-2.56-1.5-4.16-1.5-1.98,0-3.07.61-3.07,1.67s.99,1.7,3.14,1.84c3.17.2,7.19.92,7.19,5.39,0,2.97-2.42,5.52-7.23,5.52-2.66,0-5.32-.44-7.77-3l2.05-2.97c1.19,1.33,3.92,2.32,5.8,2.35,1.57.03,3.03-.78,3.03-2.01,0-1.16-.95-1.64-3.34-1.77-3.17-.24-6.96-1.4-6.96-5.22s4.02-5.25,7.09-5.25c2.63,0,4.6.51,6.55,2.22l-2.32,2.73Z"/>
  </g>
  <g>
    <circle class="cls-1" cx="141.33" cy="4.82" r="2.75"/>
    <text class="cls-6" transform="translate(139.95 6.27)"><tspan x="0" y="0">R</tspan></text>
  </g>
</svg>